<mxfile host="app.diagrams.net" modified="2020-09-04T03:27:36.374Z" agent="5.0 (Windows NT 10.0; WOW64) AppleWebKit/537.36 (KHTML, like Gecko) Chrome/84.0.4147.135 Safari/537.36" etag="GRLXlJFG5zfZf17V5cE1" version="13.6.4" type="github">
  <diagram id="C5RBs43oDa-KdzZeNtuy" name="Page-1">
    <mxGraphModel dx="2249" dy="745" grid="1" gridSize="10" guides="1" tooltips="1" connect="1" arrows="1" fold="1" page="1" pageScale="1" pageWidth="827" pageHeight="1169" math="0" shadow="0">
      <root>
        <mxCell id="WIyWlLk6GJQsqaUBKTNV-0" />
        <mxCell id="WIyWlLk6GJQsqaUBKTNV-1" parent="WIyWlLk6GJQsqaUBKTNV-0" />
        <mxCell id="WIyWlLk6GJQsqaUBKTNV-2" value="" style="rounded=0;html=1;jettySize=auto;orthogonalLoop=1;fontSize=11;endArrow=block;endFill=0;endSize=8;strokeWidth=1;shadow=0;labelBackgroundColor=none;edgeStyle=orthogonalEdgeStyle;" parent="WIyWlLk6GJQsqaUBKTNV-1" source="WIyWlLk6GJQsqaUBKTNV-3" target="WIyWlLk6GJQsqaUBKTNV-6" edge="1">
          <mxGeometry relative="1" as="geometry" />
        </mxCell>
        <mxCell id="WIyWlLk6GJQsqaUBKTNV-3" value="短链请求" style="rounded=1;whiteSpace=wrap;html=1;fontSize=12;glass=0;strokeWidth=1;shadow=0;" parent="WIyWlLk6GJQsqaUBKTNV-1" vertex="1">
          <mxGeometry x="20" y="195" width="80" height="30" as="geometry" />
        </mxCell>
        <mxCell id="WIyWlLk6GJQsqaUBKTNV-4" value="Yes" style="rounded=0;html=1;jettySize=auto;orthogonalLoop=1;fontSize=11;endArrow=block;endFill=0;endSize=8;strokeWidth=1;shadow=0;labelBackgroundColor=none;edgeStyle=orthogonalEdgeStyle;" parent="WIyWlLk6GJQsqaUBKTNV-1" source="WIyWlLk6GJQsqaUBKTNV-6" target="WIyWlLk6GJQsqaUBKTNV-10" edge="1">
          <mxGeometry y="20" relative="1" as="geometry">
            <mxPoint as="offset" />
          </mxGeometry>
        </mxCell>
        <mxCell id="IYfwe9yzYAFDn1WZ-i9A-3" style="edgeStyle=orthogonalEdgeStyle;rounded=0;orthogonalLoop=1;jettySize=auto;html=1;exitX=0.5;exitY=0;exitDx=0;exitDy=0;" parent="WIyWlLk6GJQsqaUBKTNV-1" source="WIyWlLk6GJQsqaUBKTNV-6" edge="1">
          <mxGeometry relative="1" as="geometry">
            <mxPoint x="-60" y="190" as="targetPoint" />
            <Array as="points">
              <mxPoint x="205" y="158" />
              <mxPoint x="-60" y="158" />
            </Array>
          </mxGeometry>
        </mxCell>
        <mxCell id="WIyWlLk6GJQsqaUBKTNV-6" value="{activeId} 是否存在" style="rhombus;whiteSpace=wrap;html=1;shadow=0;fontFamily=Helvetica;fontSize=12;align=center;strokeWidth=1;spacing=6;spacingTop=-4;" parent="WIyWlLk6GJQsqaUBKTNV-1" vertex="1">
          <mxGeometry x="150" y="177.5" width="110" height="65" as="geometry" />
        </mxCell>
        <mxCell id="IYfwe9yzYAFDn1WZ-i9A-7" style="edgeStyle=orthogonalEdgeStyle;rounded=0;orthogonalLoop=1;jettySize=auto;html=1;exitX=0;exitY=0.5;exitDx=0;exitDy=0;" parent="WIyWlLk6GJQsqaUBKTNV-1" source="WIyWlLk6GJQsqaUBKTNV-10" edge="1">
          <mxGeometry relative="1" as="geometry">
            <mxPoint x="-60" y="230" as="targetPoint" />
          </mxGeometry>
        </mxCell>
        <mxCell id="IYfwe9yzYAFDn1WZ-i9A-12" style="edgeStyle=orthogonalEdgeStyle;rounded=0;orthogonalLoop=1;jettySize=auto;html=1;entryX=0.5;entryY=0;entryDx=0;entryDy=0;" parent="WIyWlLk6GJQsqaUBKTNV-1" source="WIyWlLk6GJQsqaUBKTNV-10" edge="1">
          <mxGeometry relative="1" as="geometry">
            <mxPoint x="205" y="410" as="targetPoint" />
          </mxGeometry>
        </mxCell>
        <mxCell id="WIyWlLk6GJQsqaUBKTNV-10" value="根据activeId获取AdActivityBizCacheVo&lt;br&gt;(activity.%s)" style="rhombus;whiteSpace=wrap;html=1;shadow=0;fontFamily=Helvetica;fontSize=12;align=center;strokeWidth=1;spacing=6;spacingTop=-4;" parent="WIyWlLk6GJQsqaUBKTNV-1" vertex="1">
          <mxGeometry x="155" y="280" width="100" height="80" as="geometry" />
        </mxCell>
        <mxCell id="IYfwe9yzYAFDn1WZ-i9A-2" value="/ssp-hd-h5/activities/:activeId" style="text;html=1;align=center;verticalAlign=middle;resizable=0;points=[];autosize=1;" parent="WIyWlLk6GJQsqaUBKTNV-1" vertex="1">
          <mxGeometry x="-20" y="170" width="170" height="20" as="geometry" />
        </mxCell>
        <mxCell id="IYfwe9yzYAFDn1WZ-i9A-6" style="edgeStyle=orthogonalEdgeStyle;rounded=0;orthogonalLoop=1;jettySize=auto;html=1;exitX=1;exitY=0.5;exitDx=0;exitDy=0;entryX=0;entryY=0.5;entryDx=0;entryDy=0;" parent="WIyWlLk6GJQsqaUBKTNV-1" source="IYfwe9yzYAFDn1WZ-i9A-4" target="WIyWlLk6GJQsqaUBKTNV-3" edge="1">
          <mxGeometry relative="1" as="geometry" />
        </mxCell>
        <mxCell id="IYfwe9yzYAFDn1WZ-i9A-4" value="web" style="ellipse;whiteSpace=wrap;html=1;" parent="WIyWlLk6GJQsqaUBKTNV-1" vertex="1">
          <mxGeometry x="-90" y="192.5" width="60" height="35" as="geometry" />
        </mxCell>
        <mxCell id="IYfwe9yzYAFDn1WZ-i9A-8" value="NO，resp 404" style="text;html=1;strokeColor=none;fillColor=none;align=center;verticalAlign=middle;whiteSpace=wrap;rounded=0;" parent="WIyWlLk6GJQsqaUBKTNV-1" vertex="1">
          <mxGeometry x="50" y="140" width="80" height="10" as="geometry" />
        </mxCell>
        <mxCell id="IYfwe9yzYAFDn1WZ-i9A-10" value="NO，resp 404" style="text;html=1;strokeColor=none;fillColor=none;align=center;verticalAlign=middle;whiteSpace=wrap;rounded=0;" parent="WIyWlLk6GJQsqaUBKTNV-1" vertex="1">
          <mxGeometry y="300" width="80" height="10" as="geometry" />
        </mxCell>
        <mxCell id="IYfwe9yzYAFDn1WZ-i9A-13" value="yes,pageId,returnPageId" style="text;html=1;align=center;verticalAlign=middle;resizable=0;points=[];autosize=1;" parent="WIyWlLk6GJQsqaUBKTNV-1" vertex="1">
          <mxGeometry x="145" y="370" width="150" height="20" as="geometry" />
        </mxCell>
        <mxCell id="IYfwe9yzYAFDn1WZ-i9A-15" style="edgeStyle=orthogonalEdgeStyle;rounded=0;orthogonalLoop=1;jettySize=auto;html=1;exitX=0;exitY=0.5;exitDx=0;exitDy=0;" parent="WIyWlLk6GJQsqaUBKTNV-1" source="IYfwe9yzYAFDn1WZ-i9A-14" edge="1">
          <mxGeometry relative="1" as="geometry">
            <mxPoint x="-60" y="320" as="targetPoint" />
          </mxGeometry>
        </mxCell>
        <mxCell id="IYfwe9yzYAFDn1WZ-i9A-28" style="edgeStyle=orthogonalEdgeStyle;rounded=0;orthogonalLoop=1;jettySize=auto;html=1;exitX=1;exitY=0.5;exitDx=0;exitDy=0;entryX=0;entryY=0.5;entryDx=0;entryDy=0;" parent="WIyWlLk6GJQsqaUBKTNV-1" source="IYfwe9yzYAFDn1WZ-i9A-14" target="IYfwe9yzYAFDn1WZ-i9A-27" edge="1">
          <mxGeometry relative="1" as="geometry" />
        </mxCell>
        <mxCell id="IYfwe9yzYAFDn1WZ-i9A-14" value="根据pageId获取HdPageBizCacheVo&lt;br&gt;(page.%s)" style="rhombus;whiteSpace=wrap;html=1;shadow=0;fontFamily=Helvetica;fontSize=12;align=center;strokeWidth=1;spacing=6;spacingTop=-4;" parent="WIyWlLk6GJQsqaUBKTNV-1" vertex="1">
          <mxGeometry x="155" y="410" width="100" height="80" as="geometry" />
        </mxCell>
        <mxCell id="IYfwe9yzYAFDn1WZ-i9A-16" value="NO，resp 404 or 500" style="text;html=1;strokeColor=none;fillColor=none;align=center;verticalAlign=middle;whiteSpace=wrap;rounded=0;" parent="WIyWlLk6GJQsqaUBKTNV-1" vertex="1">
          <mxGeometry x="-20" y="430" width="130" height="10" as="geometry" />
        </mxCell>
        <mxCell id="IYfwe9yzYAFDn1WZ-i9A-20" style="edgeStyle=orthogonalEdgeStyle;rounded=0;orthogonalLoop=1;jettySize=auto;html=1;exitX=0;exitY=0.5;exitDx=0;exitDy=0;" parent="WIyWlLk6GJQsqaUBKTNV-1" source="IYfwe9yzYAFDn1WZ-i9A-17" edge="1">
          <mxGeometry relative="1" as="geometry">
            <mxPoint x="-60" y="450" as="targetPoint" />
          </mxGeometry>
        </mxCell>
        <mxCell id="IYfwe9yzYAFDn1WZ-i9A-23" style="edgeStyle=orthogonalEdgeStyle;rounded=0;orthogonalLoop=1;jettySize=auto;html=1;exitX=0.5;exitY=1;exitDx=0;exitDy=0;entryX=0.5;entryY=0;entryDx=0;entryDy=0;" parent="WIyWlLk6GJQsqaUBKTNV-1" source="IYfwe9yzYAFDn1WZ-i9A-17" target="IYfwe9yzYAFDn1WZ-i9A-22" edge="1">
          <mxGeometry relative="1" as="geometry" />
        </mxCell>
        <mxCell id="IYfwe9yzYAFDn1WZ-i9A-17" value="根据ad_slot,buyapp特殊城市校验&lt;br&gt;" style="rhombus;whiteSpace=wrap;html=1;shadow=0;fontFamily=Helvetica;fontSize=12;align=center;strokeWidth=1;spacing=6;spacingTop=-4;" parent="WIyWlLk6GJQsqaUBKTNV-1" vertex="1">
          <mxGeometry x="160" y="550" width="100" height="80" as="geometry" />
        </mxCell>
        <mxCell id="IYfwe9yzYAFDn1WZ-i9A-19" value="yes,&lt;span&gt;HdPageBizCacheVo&lt;/span&gt;" style="text;html=1;align=center;verticalAlign=middle;resizable=0;points=[];autosize=1;" parent="WIyWlLk6GJQsqaUBKTNV-1" vertex="1">
          <mxGeometry x="220" y="492.5" width="150" height="20" as="geometry" />
        </mxCell>
        <mxCell id="IYfwe9yzYAFDn1WZ-i9A-21" value="yes,特殊城市url:redirect_url" style="text;html=1;strokeColor=none;fillColor=none;align=center;verticalAlign=middle;whiteSpace=wrap;rounded=0;" parent="WIyWlLk6GJQsqaUBKTNV-1" vertex="1">
          <mxGeometry x="-25" y="565" width="170" height="20" as="geometry" />
        </mxCell>
        <mxCell id="IYfwe9yzYAFDn1WZ-i9A-25" style="edgeStyle=orthogonalEdgeStyle;rounded=0;orthogonalLoop=1;jettySize=auto;html=1;exitX=0;exitY=0.5;exitDx=0;exitDy=0;" parent="WIyWlLk6GJQsqaUBKTNV-1" source="IYfwe9yzYAFDn1WZ-i9A-22" edge="1">
          <mxGeometry relative="1" as="geometry">
            <mxPoint x="-60" y="590" as="targetPoint" />
          </mxGeometry>
        </mxCell>
        <mxCell id="IYfwe9yzYAFDn1WZ-i9A-22" value="页面样式，参数" style="rhombus;whiteSpace=wrap;html=1;shadow=0;fontFamily=Helvetica;fontSize=12;align=center;strokeWidth=1;spacing=6;spacingTop=-4;" parent="WIyWlLk6GJQsqaUBKTNV-1" vertex="1">
          <mxGeometry x="160" y="670" width="100" height="50" as="geometry" />
        </mxCell>
        <mxCell id="IYfwe9yzYAFDn1WZ-i9A-24" value="no,&lt;span&gt;HdPageBizCacheVo&lt;/span&gt;" style="text;html=1;align=center;verticalAlign=middle;resizable=0;points=[];autosize=1;" parent="WIyWlLk6GJQsqaUBKTNV-1" vertex="1">
          <mxGeometry x="175" y="630" width="140" height="20" as="geometry" />
        </mxCell>
        <mxCell id="IYfwe9yzYAFDn1WZ-i9A-26" value="yes,互动页url" style="text;html=1;strokeColor=none;fillColor=none;align=center;verticalAlign=middle;whiteSpace=wrap;rounded=0;" parent="WIyWlLk6GJQsqaUBKTNV-1" vertex="1">
          <mxGeometry x="-40" y="670" width="170" height="20" as="geometry" />
        </mxCell>
        <mxCell id="IYfwe9yzYAFDn1WZ-i9A-33" style="edgeStyle=orthogonalEdgeStyle;rounded=0;orthogonalLoop=1;jettySize=auto;html=1;" parent="WIyWlLk6GJQsqaUBKTNV-1" source="IYfwe9yzYAFDn1WZ-i9A-27" edge="1">
          <mxGeometry relative="1" as="geometry">
            <mxPoint x="260" y="590" as="targetPoint" />
            <Array as="points">
              <mxPoint x="350" y="590" />
            </Array>
          </mxGeometry>
        </mxCell>
        <mxCell id="IYfwe9yzYAFDn1WZ-i9A-38" style="edgeStyle=orthogonalEdgeStyle;rounded=0;orthogonalLoop=1;jettySize=auto;html=1;entryX=0;entryY=0.5;entryDx=0;entryDy=0;entryPerimeter=0;" parent="WIyWlLk6GJQsqaUBKTNV-1" source="IYfwe9yzYAFDn1WZ-i9A-27" target="IYfwe9yzYAFDn1WZ-i9A-36" edge="1">
          <mxGeometry relative="1" as="geometry" />
        </mxCell>
        <mxCell id="IYfwe9yzYAFDn1WZ-i9A-27" value="校验直投or互动" style="rhombus;whiteSpace=wrap;html=1;shadow=0;fontFamily=Helvetica;fontSize=12;align=center;strokeWidth=1;spacing=6;spacingTop=-4;" parent="WIyWlLk6GJQsqaUBKTNV-1" vertex="1">
          <mxGeometry x="300" y="410" width="100" height="80" as="geometry" />
        </mxCell>
        <mxCell id="IYfwe9yzYAFDn1WZ-i9A-32" value="互动" style="text;html=1;align=center;verticalAlign=middle;resizable=0;points=[];autosize=1;" parent="WIyWlLk6GJQsqaUBKTNV-1" vertex="1">
          <mxGeometry x="315" y="540" width="40" height="20" as="geometry" />
        </mxCell>
        <mxCell id="IYfwe9yzYAFDn1WZ-i9A-40" style="edgeStyle=orthogonalEdgeStyle;rounded=0;orthogonalLoop=1;jettySize=auto;html=1;exitX=0.5;exitY=0;exitDx=0;exitDy=0;exitPerimeter=0;entryX=0.5;entryY=1;entryDx=0;entryDy=0;entryPerimeter=0;" parent="WIyWlLk6GJQsqaUBKTNV-1" source="IYfwe9yzYAFDn1WZ-i9A-36" target="IYfwe9yzYAFDn1WZ-i9A-39" edge="1">
          <mxGeometry relative="1" as="geometry">
            <mxPoint x="490" y="390" as="targetPoint" />
          </mxGeometry>
        </mxCell>
        <mxCell id="IYfwe9yzYAFDn1WZ-i9A-45" style="edgeStyle=orthogonalEdgeStyle;rounded=0;orthogonalLoop=1;jettySize=auto;html=1;exitX=0.5;exitY=1;exitDx=0;exitDy=0;exitPerimeter=0;entryX=0.5;entryY=0;entryDx=0;entryDy=0;" parent="WIyWlLk6GJQsqaUBKTNV-1" source="IYfwe9yzYAFDn1WZ-i9A-36" target="IYfwe9yzYAFDn1WZ-i9A-44" edge="1">
          <mxGeometry relative="1" as="geometry" />
        </mxCell>
        <mxCell id="IYfwe9yzYAFDn1WZ-i9A-36" value="拉取直投广告" style="strokeWidth=2;html=1;shape=mxgraph.flowchart.terminator;whiteSpace=wrap;" parent="WIyWlLk6GJQsqaUBKTNV-1" vertex="1">
          <mxGeometry x="440" y="420" width="100" height="60" as="geometry" />
        </mxCell>
        <mxCell id="IYfwe9yzYAFDn1WZ-i9A-41" style="edgeStyle=orthogonalEdgeStyle;rounded=0;orthogonalLoop=1;jettySize=auto;html=1;entryX=1;entryY=0.5;entryDx=0;entryDy=0;entryPerimeter=0;" parent="WIyWlLk6GJQsqaUBKTNV-1" source="IYfwe9yzYAFDn1WZ-i9A-39" target="IYfwe9yzYAFDn1WZ-i9A-36" edge="1">
          <mxGeometry relative="1" as="geometry">
            <Array as="points">
              <mxPoint x="560" y="350" />
              <mxPoint x="560" y="450" />
            </Array>
          </mxGeometry>
        </mxCell>
        <mxCell id="IYfwe9yzYAFDn1WZ-i9A-39" value="hdt-rtb-api" style="strokeWidth=2;html=1;shape=mxgraph.flowchart.terminator;whiteSpace=wrap;" parent="WIyWlLk6GJQsqaUBKTNV-1" vertex="1">
          <mxGeometry x="445" y="320" width="90" height="60" as="geometry" />
        </mxCell>
        <mxCell id="IYfwe9yzYAFDn1WZ-i9A-42" value="广告返回" style="text;html=1;align=center;verticalAlign=middle;resizable=0;points=[];autosize=1;" parent="WIyWlLk6GJQsqaUBKTNV-1" vertex="1">
          <mxGeometry x="550" y="390" width="60" height="20" as="geometry" />
        </mxCell>
        <mxCell id="IYfwe9yzYAFDn1WZ-i9A-43" value="直投" style="text;html=1;align=center;verticalAlign=middle;resizable=0;points=[];autosize=1;" parent="WIyWlLk6GJQsqaUBKTNV-1" vertex="1">
          <mxGeometry x="390" y="420" width="40" height="20" as="geometry" />
        </mxCell>
        <mxCell id="IYfwe9yzYAFDn1WZ-i9A-46" style="edgeStyle=orthogonalEdgeStyle;rounded=0;orthogonalLoop=1;jettySize=auto;html=1;exitX=0;exitY=0.5;exitDx=0;exitDy=0;" parent="WIyWlLk6GJQsqaUBKTNV-1" source="IYfwe9yzYAFDn1WZ-i9A-44" edge="1">
          <mxGeometry relative="1" as="geometry">
            <mxPoint x="-60" y="530" as="targetPoint" />
          </mxGeometry>
        </mxCell>
        <mxCell id="IYfwe9yzYAFDn1WZ-i9A-48" style="edgeStyle=orthogonalEdgeStyle;rounded=0;orthogonalLoop=1;jettySize=auto;html=1;exitX=0.5;exitY=1;exitDx=0;exitDy=0;" parent="WIyWlLk6GJQsqaUBKTNV-1" source="IYfwe9yzYAFDn1WZ-i9A-44" edge="1">
          <mxGeometry relative="1" as="geometry">
            <mxPoint x="350" y="590" as="targetPoint" />
            <Array as="points">
              <mxPoint x="485" y="590" />
            </Array>
          </mxGeometry>
        </mxCell>
        <mxCell id="IYfwe9yzYAFDn1WZ-i9A-51" style="edgeStyle=orthogonalEdgeStyle;rounded=0;orthogonalLoop=1;jettySize=auto;html=1;exitX=1;exitY=0.5;exitDx=0;exitDy=0;entryX=0;entryY=0.5;entryDx=0;entryDy=0;entryPerimeter=0;" parent="WIyWlLk6GJQsqaUBKTNV-1" source="IYfwe9yzYAFDn1WZ-i9A-44" target="IYfwe9yzYAFDn1WZ-i9A-50" edge="1">
          <mxGeometry relative="1" as="geometry" />
        </mxCell>
        <mxCell id="IYfwe9yzYAFDn1WZ-i9A-44" value="是否拉取到广告" style="rhombus;whiteSpace=wrap;html=1;shadow=0;fontFamily=Helvetica;fontSize=12;align=center;strokeWidth=1;spacing=6;spacingTop=-4;" parent="WIyWlLk6GJQsqaUBKTNV-1" vertex="1">
          <mxGeometry x="435" y="502.5" width="100" height="55" as="geometry" />
        </mxCell>
        <mxCell id="IYfwe9yzYAFDn1WZ-i9A-47" value="&lt;span style=&quot;color: rgb(0 , 0 , 0) ; font-family: &amp;#34;helvetica&amp;#34; ; font-size: 12px ; font-style: normal ; font-weight: 400 ; letter-spacing: normal ; text-align: center ; text-indent: 0px ; text-transform: none ; word-spacing: 0px ; background-color: rgb(248 , 249 , 250) ; display: inline ; float: none&quot;&gt;yes,广告落地页url&lt;/span&gt;" style="text;whiteSpace=wrap;html=1;" parent="WIyWlLk6GJQsqaUBKTNV-1" vertex="1">
          <mxGeometry x="10" y="502.5" width="120" height="30" as="geometry" />
        </mxCell>
        <mxCell id="IYfwe9yzYAFDn1WZ-i9A-49" value="拉取不到广告走原有逻辑" style="text;html=1;align=center;verticalAlign=middle;resizable=0;points=[];autosize=1;" parent="WIyWlLk6GJQsqaUBKTNV-1" vertex="1">
          <mxGeometry x="315" y="570" width="150" height="20" as="geometry" />
        </mxCell>
        <mxCell id="IYfwe9yzYAFDn1WZ-i9A-50" value="拼装事件kafka消息体，发送kafka" style="strokeWidth=2;html=1;shape=mxgraph.flowchart.terminator;whiteSpace=wrap;" parent="WIyWlLk6GJQsqaUBKTNV-1" vertex="1">
          <mxGeometry x="650" y="500" width="100" height="60" as="geometry" />
        </mxCell>
        <mxCell id="IYfwe9yzYAFDn1WZ-i9A-52" value="yes,模拟h5事件上报" style="text;html=1;align=center;verticalAlign=middle;resizable=0;points=[];autosize=1;" parent="WIyWlLk6GJQsqaUBKTNV-1" vertex="1">
          <mxGeometry x="535" y="512.5" width="120" height="20" as="geometry" />
        </mxCell>
      </root>
    </mxGraphModel>
  </diagram>
</mxfile>
